<?xml version="1.0" standalone="no"?>
<!DOCTYPE svg PUBLIC "-//W3C//DTD SVG 20010904//EN"
 "http://www.w3.org/TR/2001/REC-SVG-20010904/DTD/svg10.dtd">
<svg version="1.0" xmlns="http://www.w3.org/2000/svg"
 width="512.000000pt" height="512.000000pt" viewBox="0 0 512.000000 512.000000"
 preserveAspectRatio="xMidYMid meet">
<metadata>
Created by potrace 1.14, written by Peter Selinger 2001-2017
</metadata>
<g transform="translate(0.000000,512.000000) scale(0.100000,-0.100000)"
fill="#000000" stroke="none">
<path d="M2359 4276 c-3 -3 -19 -7 -35 -9 -34 -3 -146 -55 -157 -74 -4 -7 -12
-13 -18 -13 -9 0 -21 -8 -54 -37 -7 -7 -18 -13 -24 -13 -6 0 -11 -4 -11 -9 0
-4 -10 -19 -23 -32 -37 -38 -87 -106 -87 -117 0 -6 -4 -12 -8 -14 -12 -5 -66
-121 -63 -135 1 -7 -4 -13 -10 -13 -7 0 -9 -3 -6 -6 3 -4 2 -15 -4 -26 -6 -10
-12 -34 -13 -52 -2 -19 -7 -39 -10 -45 -12 -18 -7 -206 4 -206 1 0 3 -9 5 -20
6 -28 38 -98 53 -113 10 -12 5 -21 -28 -53 -22 -21 -37 -39 -33 -39 4 0 0 -6
-8 -12 -26 -22 -119 -134 -119 -144 0 -5 -9 -15 -21 -22 -12 -7 -19 -16 -16
-19 3 -2 -2 -13 -11 -23 -29 -32 -36 -43 -100 -145 -34 -55 -69 -109 -77 -120
-8 -10 -15 -28 -15 -39 0 -10 -3 -16 -7 -13 -6 6 -43 -64 -42 -80 1 -3 -3 -9
-8 -12 -14 -9 -63 -101 -63 -117 0 -8 -4 -14 -9 -14 -5 0 -17 -22 -26 -49 -9
-28 -19 -51 -23 -53 -8 -3 -44 -96 -45 -115 0 -7 -5 -13 -10 -13 -6 0 -8 -3
-4 -6 3 -3 1 -18 -5 -33 -5 -14 -12 -42 -15 -61 -3 -19 -8 -37 -12 -40 -7 -6
-9 -250 -1 -250 3 0 6 -8 7 -17 1 -10 4 -31 8 -48 4 -16 8 -39 10 -50 2 -11 4
-22 5 -25 1 -3 2 -8 1 -12 0 -5 3 -8 9 -8 5 0 10 -7 10 -16 0 -9 11 -38 25
-65 13 -27 21 -49 17 -49 -4 0 -2 -4 3 -8 6 -4 22 -23 35 -42 31 -47 146 -161
154 -153 3 3 8 -2 12 -11 3 -9 12 -16 20 -16 8 0 14 -4 14 -10 0 -5 7 -10 15
-10 8 0 15 -4 15 -9 0 -5 11 -12 24 -15 34 -8 55 -32 49 -55 -5 -19 -30 -34
-49 -30 -5 1 -11 0 -14 -1 -3 -1 -14 -3 -25 -5 -56 -10 -107 -30 -112 -42 -3
-7 -11 -13 -18 -13 -7 0 -31 -21 -54 -48 -56 -62 -57 -65 -66 -93 -4 -13 -11
-29 -16 -34 -4 -6 -11 -26 -14 -45 -3 -19 -8 -48 -11 -64 -5 -22 -3 -27 7 -20
12 6 12 5 0 -9 -10 -13 -11 -20 -2 -31 9 -10 9 -16 1 -21 -7 -4 -8 -11 -2 -18
5 -7 8 -20 7 -29 -2 -10 0 -18 3 -18 4 0 13 -15 21 -32 8 -18 24 -42 37 -54
13 -12 21 -24 17 -28 -3 -3 -1 -6 6 -6 7 0 19 -6 26 -13 8 -6 20 -17 28 -23 8
-7 13 -30 12 -58 0 -25 2 -46 5 -46 8 0 5 -44 -4 -58 -4 -7 -2 -12 4 -12 7 0
7 -7 -1 -22 -8 -15 -9 -23 -1 -26 6 -2 7 -13 3 -30 -5 -15 -7 -37 -5 -49 2
-13 -1 -23 -8 -23 -9 0 -9 -3 -1 -11 9 -9 8 -18 -4 -35 -8 -13 -12 -24 -8 -24
4 0 3 -6 -2 -12 -6 -7 -9 -21 -8 -30 2 -10 0 -18 -4 -18 -9 0 -34 -61 -32 -77
1 -7 -3 -13 -9 -13 -5 0 -10 -7 -10 -15 0 -13 132 -15 1124 -15 1120 0 1125 0
1121 20 -2 11 -7 25 -11 32 -4 6 -3 8 3 5 6 -4 13 0 17 8 3 8 0 15 -6 15 -8 0
-9 3 -2 10 7 7 8 29 4 55 -4 24 -3 42 2 39 4 -3 8 -1 8 5 0 5 -4 13 -10 16 -5
3 -10 11 -10 18 0 17 30 -30 35 -54 8 -41 17 -59 26 -54 5 3 6 0 4 -7 -3 -7 8
-35 25 -61 l30 -47 195 0 195 0 -19 34 c-11 19 -19 36 -18 38 1 1 0 2 -2 0 -9
-5 -72 119 -65 130 4 7 3 8 -4 4 -7 -4 -12 -1 -12 8 0 24 -2 30 -17 44 -7 8
-11 18 -8 23 4 5 1 9 -6 9 -7 0 -10 3 -6 6 3 4 0 19 -8 34 -8 15 -11 30 -8 34
4 3 1 6 -6 6 -6 0 -11 6 -10 13 2 6 -5 36 -14 66 -9 29 -14 57 -11 62 3 5 2 9
-3 9 -4 0 -9 12 -10 27 -1 16 -3 37 -6 48 -4 22 29 65 51 65 7 0 11 4 8 9 -3
5 1 11 9 15 8 3 15 12 15 20 0 8 7 19 15 24 9 4 17 18 18 30 1 12 6 22 11 22
5 0 6 3 3 7 -4 3 -3 11 2 17 5 6 11 25 14 43 3 17 8 37 13 44 5 8 3 10 -7 4
-12 -7 -12 -6 -1 7 9 12 10 18 2 23 -8 5 -7 11 1 22 8 9 9 17 3 21 -5 4 -10
22 -11 41 -1 19 -5 37 -10 40 -8 6 -15 27 -16 49 0 6 -4 12 -7 12 -4 0 -13 14
-20 30 -7 17 -22 37 -34 45 -11 8 -17 15 -13 15 3 0 -13 18 -37 40 -24 22 -48
40 -55 40 -6 0 -11 4 -11 9 0 16 -128 74 -167 76 -12 0 -25 4 -28 7 -4 4 -14
4 -23 1 -11 -5 -13 -3 -7 8 7 11 6 12 -6 3 -8 -6 -23 -14 -34 -18 -17 -6 -16
-4 5 21 14 15 34 37 46 48 31 31 94 133 109 175 1 3 5 12 8 20 19 44 35 99 30
104 -4 3 -1 6 5 6 6 0 10 8 10 18 0 9 3 40 7 67 13 76 10 326 -4 350 -3 5 -6
25 -8 44 -1 18 -7 39 -13 46 -5 6 -7 14 -5 17 3 3 1 17 -5 32 -10 26 -20 67
-23 96 -1 8 -4 17 -7 20 -3 3 -16 32 -29 65 -14 33 -27 62 -30 65 -3 3 -6 10
-6 15 0 10 -66 146 -75 155 -3 3 -14 21 -24 40 -31 55 -109 174 -121 182 -5 4
-7 8 -3 8 6 0 -27 42 -64 81 -10 11 -15 19 -10 19 4 0 -1 5 -10 11 -10 5 -18
14 -18 19 0 22 -259 280 -281 280 -6 0 -7 5 -4 10 3 6 0 10 -9 10 -8 0 -16 3
-18 8 -5 11 -75 62 -86 62 -5 0 -15 7 -22 15 -6 8 -45 31 -86 51 -41 20 -76
40 -79 43 -2 4 2 20 10 36 14 31 27 77 30 108 2 9 3 18 5 20 1 1 3 16 4 32 2
17 4 35 6 40 1 6 1 12 0 15 -9 22 -6 70 3 70 9 0 9 2 0 8 -7 4 -14 29 -15 55
-2 26 -5 47 -8 47 -3 0 -12 20 -19 45 -7 25 -17 45 -22 45 -5 0 -9 7 -9 15 0
8 -4 15 -10 15 -5 0 -10 6 -10 14 0 17 -87 96 -106 96 -8 0 -14 5 -14 11 0 5
-4 7 -10 4 -5 -3 -10 -1 -10 4 0 6 -3 10 -7 10 -5 -1 -10 0 -13 1 -25 10 -144
22 -151 16z"/>
</g>
</svg>
